# xmcd
#
# Track frame offsets: 
#        151
#        15456
#        31296
#        42391
#        59991
#        73959
#        86525
#        103001
#        118671
#        135295
#        151631
#        168012
#        183254
#        196789
#        210789
#        223540
#        238689
#
# Disc length: 3336 seconds
#
# Revision: 2
# Processed by: cddbd v1.5.2PL0 Copyright (c) Steve Scherf et al.
# Submitted via: ExactAudioCopy v0.99pb5
#
DISCID=dd0d0611
DTITLE=Olivia Newton-John - Love Songs
DYEAR=1900
DGENRE=
TTITLE0=Please Mr Please
TTITLE1=Have You Never Been Mellow
TTITLE2=If
TTITLE3=Angel Og The Morning
TTITLE4=Behind That Locked Door
TTITLE5=God Only Knows
TTITLE6=Love Song
TTITLE7=No Regrets
TTITLE8=If You Could Read My Mind
TTITLE9=I Honestly Love You
TTITLE10=Amoureuse
TTITLE11=Where Are We Going To My Love
TTITLE12=Lullaby
TTITLE13=I Will Touch You
TTITLE14=Winterwood
TTITLE15=If We Only Have Love
TTITLE16=Changes
EXTD=
EXTT0=
EXTT1=
EXTT2=
EXTT3=
EXTT4=
EXTT5=
EXTT6=
EXTT7=
EXTT8=
EXTT9=
EXTT10=
EXTT11=
EXTT12=
EXTT13=
EXTT14=
EXTT15=
EXTT16=
PLAYORDER=
